<svg xmlns="http://www.w3.org/2000/svg" viewBox="0 0 95.92 63.69">
  <defs>
    <style>
      .cls-1 {
        fill: #cd5ff8;
      }
    </style>
  </defs>
  <g id="Livello_2" data-name="Livello 2">
    <g id="Livello_1-2" data-name="Livello 1">
      <g>
        <path class="cls-1" d="M41.37,19.8,32.58,41.4h20.3c2.72,0,4.07.93,4.07,2.81a3.67,3.67,0,0,1-1.43,3.09,6.46,6.46,0,0,1-4,1.1H29.74l-.36.82a55.25,55.25,0,0,1-3.22,6.41,18,18,0,0,1-3,3.58,16.19,16.19,0,0,1-11.25,4.48,12.13,12.13,0,0,1-8.52-3.07A10.19,10.19,0,0,1,0,52.79a11.13,11.13,0,0,1,1.44-5.53,10.37,10.37,0,0,1,3.89-4A17.34,17.34,0,0,1,14,41.4H24.35l8.76-21.6H28.8c-2.19,0-3.28-1-3.28-2.9a3.58,3.58,0,0,1,1.43-3,6.46,6.46,0,0,1,4-1.1h5l1.34-3.31Q41.13,0,49,0a9.33,9.33,0,0,1,6.68,2.53,8.4,8.4,0,0,1,2.67,6.35,9.56,9.56,0,0,1-3.87,7.89,15.83,15.83,0,0,1-10.05,3ZM21.47,48.4h-7.7Q8,48.4,8,52.47a3.61,3.61,0,0,0,1.26,2.8,4.57,4.57,0,0,0,3.16,1.13,7.52,7.52,0,0,0,5-2.16A16.13,16.13,0,0,0,21.47,48.4ZM44.21,12.8h1.35a6.32,6.32,0,0,0,3.76-1.1A3.19,3.19,0,0,0,50.89,9c0-1.56-.73-2.34-2.2-2.34S46.14,8.05,45,10.78Z"/>
        <path class="cls-1" d="M88.74,34h3.49q3.69,0,3.69,2.61a3.3,3.3,0,0,1-1.31,2.78,5.76,5.76,0,0,1-3.61,1h-6a4.71,4.71,0,0,1-3.14-1,3.4,3.4,0,0,1-1.2-2.7,9.16,9.16,0,0,1,.79-3.11l2.76-6.7a3.14,3.14,0,0,0,.23-1.09,1.69,1.69,0,0,0-1.93-1.9,4.42,4.42,0,0,0-3,1.34,9.37,9.37,0,0,0-2.34,3.58L74,36.88q-1.6,3.93-4.68,3.93A2.88,2.88,0,0,1,67.24,40a2.47,2.47,0,0,1-.85-1.88,5.54,5.54,0,0,1,.44-2l.32-.79,3.31-8.17a5,5,0,0,0,.44-1.7,1.44,1.44,0,0,0-.59-1.13,2.1,2.1,0,0,0-1.37-.48q-3.16,0-5,4.57L60.5,36.86q-1.62,3.95-4.66,4A3,3,0,0,1,53.77,40a2.44,2.44,0,0,1-.86-1.89,5.62,5.62,0,0,1,.44-2l.32-.79L59.5,21c.82-2,2-3,3.69-3a3,3,0,0,1,3.17,2.4,15.46,15.46,0,0,1,3.23-2.26,7.53,7.53,0,0,1,3.07-.55A6.35,6.35,0,0,1,78.54,21a10,10,0,0,1,7.39-3.43,7,7,0,0,1,4.7,1.62,5.09,5.09,0,0,1,1.89,4,8.33,8.33,0,0,1-.64,3.08Z"/>
      </g>
    </g>
  </g>
</svg>
